<svg width="19" height="19" viewBox="0 0 19 19" fill="none" xmlns="http://www.w3.org/2000/svg">
<path d="M18.5359 11.2292C18.4416 11.1347 18.3233 11.0676 18.1937 11.0353C18.0641 11.0029 17.9282 11.0064 17.8005 11.0454C16.3982 11.4693 14.9072 11.5049 13.4863 11.1482C12.0654 10.7916 10.7679 10.0562 9.73203 9.02028C8.69615 7.9844 7.96072 6.68689 7.60409 5.26601C7.24746 3.84513 7.28301 2.35411 7.70694 0.951832C7.74628 0.824055 7.75005 0.687971 7.71783 0.558213C7.68562 0.428456 7.61864 0.309935 7.5241 0.215398C7.42957 0.12086 7.31104 0.0538822 7.18129 0.0216676C7.05153 -0.0105469 6.91544 -0.00677941 6.78767 0.0325649C4.84896 0.626453 3.14695 1.81667 1.92383 3.43385C0.854181 4.85399 0.201724 6.54426 0.0397583 8.31477C-0.122207 10.0853 0.212737 11.8659 1.00696 13.4565C1.80118 15.0472 3.02322 16.3848 4.53577 17.3192C6.04832 18.2536 7.79147 18.7478 9.56937 18.7461C11.6435 18.7524 13.6625 18.0781 15.3166 16.8267C16.9338 15.6035 18.124 13.9015 18.7179 11.9628C18.7568 11.8355 18.7604 11.7 18.7284 11.5708C18.6963 11.4417 18.6298 11.3236 18.5359 11.2292ZM14.4323 15.6518C12.8746 16.8251 10.9456 17.3961 9.0003 17.2599C7.055 17.1237 5.22437 16.2894 3.84541 14.9105C2.46645 13.5317 1.63198 11.7011 1.49561 9.75583C1.35924 7.81054 1.93015 5.88146 3.10325 4.3237C3.86753 3.3144 4.85561 2.49624 5.98975 1.93361C5.92514 2.38701 5.89258 2.84441 5.8923 3.3024C5.89498 5.83714 6.90309 8.26731 8.69543 10.0596C10.4878 11.852 12.9179 12.8601 15.4527 12.8628C15.9116 12.8626 16.3699 12.8301 16.8242 12.7653C16.2611 13.8997 15.4423 14.8878 14.4323 15.6518Z" fill="#0A100F"/>
</svg>
