<svg width="32" height="32" viewBox="0 0 32 32" fill="none" xmlns="http://www.w3.org/2000/svg">
<path d="M13.0797 0H18.9203C20.8474 0 22.4024 5.20989e-07 23.661 0.101926C24.9553 0.208593 26.093 0.433778 27.1455 0.969481C28.8191 1.82133 30.18 3.18137 31.0329 4.85452C31.5686 5.90696 31.7914 7.04474 31.8981 8.33896C32 9.59763 32 11.1526 32 13.0797V18.9203C32 20.8474 32 22.4024 31.8981 23.661C31.7914 24.9553 31.5662 26.093 31.0305 27.1455C30.1787 28.8191 28.8186 30.18 27.1455 31.0329C26.093 31.5686 24.9553 31.7914 23.661 31.8981C22.4024 32 20.8474 32 18.9203 32H10.3633C5.61067 32 3.22844 26.2542 6.58963 22.8954L17.043 12.4444H13.3333C12.8618 12.4444 12.4097 12.2571 12.0763 11.9237C11.7429 11.5903 11.5556 11.1382 11.5556 10.6667C11.5556 10.1952 11.7429 9.74299 12.0763 9.40959C12.4097 9.07619 12.8618 8.88889 13.3333 8.88889H21.3333C21.8048 8.88889 22.257 9.07619 22.5904 9.40959C22.9238 9.74299 23.1111 10.1952 23.1111 10.6667V18.6667C23.1111 19.1382 22.9238 19.5903 22.5904 19.9237C22.257 20.2571 21.8048 20.4444 21.3333 20.4444C20.8618 20.4444 20.4097 20.2571 20.0763 19.9237C19.7429 19.5903 19.5556 19.1382 19.5556 18.6667V14.9594L9.10459 25.4104C8.85628 25.659 8.68722 25.9756 8.61875 26.3203C8.55028 26.6649 8.58549 27.0221 8.71991 27.3468C8.85434 27.6714 9.08196 27.949 9.37403 28.1443C9.66609 28.3397 10.0095 28.4441 10.3609 28.4444H18.8444C20.8664 28.4444 22.2744 28.4444 23.3719 28.3544C24.4456 28.2643 25.0643 28.1007 25.5336 27.8637C26.5363 27.3517 27.3517 26.5363 27.8637 25.5336C28.1007 25.0643 28.2667 24.4456 28.3544 23.3695C28.4421 22.2744 28.4444 20.8664 28.4444 18.8444V13.1556C28.4444 11.136 28.4444 9.72563 28.3544 8.62815C28.2643 7.55437 28.1007 6.9357 27.8637 6.46874C27.3528 5.46468 26.5372 4.64818 25.5336 4.1363C25.0643 3.89926 24.4456 3.73333 23.3695 3.64563C22.2744 3.55793 20.8664 3.55556 18.8444 3.55556H13.1556C11.136 3.55556 9.72563 3.55556 8.62815 3.64563C7.55437 3.73333 6.9357 3.89926 6.46874 4.1363C5.46432 4.64777 4.64777 5.46432 4.1363 6.46874C3.89926 6.9357 3.73333 7.55437 3.64563 8.63052C3.55793 9.72563 3.55556 11.136 3.55556 13.1556V19.5556C3.55556 20.0271 3.36825 20.4792 3.03486 20.8126C2.70146 21.146 2.24927 21.3333 1.77778 21.3333C1.30628 21.3333 0.854097 21.146 0.520699 20.8126C0.187301 20.4792 0 20.0271 0 19.5556V13.0797C0 11.1526 5.20989e-07 9.59763 0.101926 8.33896C0.208593 7.04474 0.433778 5.90696 0.969481 4.85452C1.82133 3.18085 3.18137 1.81998 4.85452 0.967111C5.90696 0.431407 7.04474 0.208593 8.33896 0.101926C9.59763 5.20989e-07 11.1526 0 13.0797 0Z" fill="#648a8a"/>
</svg>
